<svg width="44" height="44" viewBox="0 0 44 44" fill="none" xmlns="http://www.w3.org/2000/svg">
<rect width="44" height="44" rx="22" fill="#F6F6F6"/>
<path fill-rule="evenodd" clip-rule="evenodd" d="M17.5322 14.2595L17.5172 14.2439L16.0391 15.7873V12.2795L16.7856 11.5L30.2236 11.5L30.9851 12.2795V13.0481L31 13.059L31 29.1013L30.4625 29.8185L22.9969 32.5L22.0413 31.7673V30.2082H16.7856L16.0391 29.4287V25.9209L17.5322 27.48V28.6492H22.0413V15.7249L22.5341 15.0078L27.96 13.059L17.5322 13.059V14.2595ZM23.5345 30.6448L29.5069 28.5557L29.5069 14.1815L23.5345 16.2706L23.5345 30.6448ZM18.9208 20.1214H11.5V21.6804H18.861L16.487 24.1748L17.5471 25.2661L21.2351 21.431V20.3241L17.5172 16.4577L16.4721 17.549L18.9208 20.1214Z" fill="#828282"/>
</svg>
