<svg xmlns="http://www.w3.org/2000/svg" width="30" height="47" viewBox="0 0 30 47" fill="none">
<path d="M30 5.33595V5.40369C30 7.91014 24.8129 9.95111 15 9.95111C4.69355 9.95111 0 7.91014 0 5.40369V5.28756C0 3.83595 1.61613 2.68434 4.80968 1.87143C7.53871 1.17466 11.1581 0.797241 15 0.797241C18.8323 0.797241 22.4516 1.17466 25.1903 1.87143C28.3839 2.68434 30 3.83595 30 5.28756V5.33595ZM12.871 5.28756C12.871 4.88111 11.5935 4.56176 10.0258 4.56176C8.44839 4.56176 7.17097 4.88111 7.17097 5.28756C7.17097 5.68434 8.44839 6.01337 10.0258 6.01337C11.5935 6.01337 12.871 5.68434 12.871 5.28756ZM29.0903 14.7608V8.93498C28.2484 9.57369 26.971 10.1156 25.2581 10.5511C22.5 11.2576 18.8613 11.635 15 11.635C11.1387 11.635 7.5 11.2479 4.74194 10.5511C3.02903 10.1156 1.75161 9.58337 0.909678 8.93498V14.7608C0.3 15.2737 0 15.8447 0 16.4737V16.5801C0 19.0866 4.69355 21.1189 15 21.1189C24.8129 21.1189 30 19.0866 30 16.5801V16.4737C30 15.8447 29.7 15.2737 29.0903 14.7608ZM29.0903 27.235V20.1221C28.2484 20.7608 26.971 21.3027 25.2581 21.7382C22.5 22.435 18.8613 22.8221 15 22.8221C11.1387 22.8221 7.5 22.435 4.74194 21.7382C3.02903 21.3027 1.75161 20.7608 0.909678 20.1221V27.235C0.3 27.7479 0 28.3189 0 28.9479V29.035C0 31.5414 4.69355 33.5737 15 33.5737C24.8129 33.5737 30 31.5414 30 29.035V28.9479C30 28.3092 29.7 27.7382 29.0903 27.235ZM29.9516 41.306C29.8452 40.8318 29.5645 40.3963 29.0903 39.9995V32.5963C28.2484 33.235 26.971 33.7769 25.2581 34.2124C22.5 34.9092 18.8613 35.2963 15 35.2963C11.1387 35.2963 7.5 34.9092 4.74194 34.2124C3.02903 33.7769 1.75161 33.235 0.909678 32.5963V39.9995C0.435484 40.3963 0.154839 40.8318 0.0483871 41.306C0.0193548 41.4221 0 41.5479 0 41.664V41.7124C0 42.264 0.222581 42.7672 0.677419 43.2221C2.32258 44.964 6.94839 46.2027 15 46.2027C20.8258 46.2027 25.0258 45.4866 27.4742 44.3737C29.1484 43.6479 30 42.7672 30 41.7124V41.664C30 41.5479 29.9806 41.4221 29.9516 41.306Z" fill="#e18700"/>
</svg>