<svg xmlns="http://www.w3.org/2000/svg" width="60" height="41" viewBox="0 0 60 41" fill="none">
<path d="M46.224 20.5C46.224 11.28 50.055 6.1 53.055 6.1H57C54.996 2.57 53.337 0.5 46.026 0.5H16.002C4.8 0.5 0 11.97 0 20.5C0 29.03 4.8 40.5 16.002 40.5H46.026C53.34 40.5 54.996 38.43 57 34.9H53.055C50.055 34.9 46.224 29.72 46.224 20.5ZM38.064 26.4833C37.572 27.3167 36.036 26.5367 36.036 26.5367L27.165 22.0767C27.165 22.0767 26.373 24.31 25.764 25.88C25.149 27.45 24.681 29.2267 22.137 27.24C19.59 25.2467 11.394 16.4067 11.394 16.4067C11.394 16.4067 10.359 15.46 10.875 14.57C11.364 13.73 12.903 14.5167 12.903 14.5167L21.771 18.97C21.771 18.97 22.566 16.7433 23.175 15.1733C23.79 13.6067 24.258 11.82 26.802 13.8133C29.349 15.8 37.542 24.6467 37.542 24.6467C37.542 24.6467 38.577 25.59 38.064 26.4833ZM56.622 13.5933H54.375C52.698 13.5933 51.06 16.1067 51.06 20.19C51.06 24.28 52.701 26.79 54.375 26.79H56.622C58.302 26.79 60 24.2767 60 20.19C60 16.1067 58.302 13.5933 56.622 13.5933Z" fill="#e18700"/>
</svg>