<svg width="50" height="51" viewBox="0 0 50 51" fill="none" xmlns="http://www.w3.org/2000/svg">
<path d="M41.2856 41.6839C42.6301 41.6839 43.7754 42.8292 43.7754 44.1737C43.7754 45.5182 42.6301 46.6635 41.2856 46.6635H11.4078C10.0633 46.6635 8.91795 45.5182 8.91795 44.1737C8.91795 42.8292 10.0633 41.6839 11.4078 41.6839H41.2856ZM41.2856 37.9491H11.4078C7.99671 37.9491 5.18321 40.7626 5.18321 44.1737C5.18321 47.5847 7.99671 50.3982 11.4078 50.3982H41.2856C42.9365 50.3982 44.5197 49.7424 45.687 48.5751C46.8544 47.4078 47.5102 45.8245 47.5102 44.1737C47.5102 42.5228 46.8544 40.9396 45.687 39.7723C44.5197 38.6049 42.9365 37.9491 41.2856 37.9491ZM47.5102 23.0102H40.0407V13.0509H27.5916L20.1221 23.0102V35.4593H50L47.5102 23.0102ZM23.9565 23.0102L28.8365 16.7856H35.0611V23.0102H23.9565ZM19.5246 4.11246L7.07548 0.601807L0.203572 25.0768C-0.642967 28.2637 1.2244 31.5752 4.43627 32.4715L7.32446 33.2683L15.516 26.2221L5.85547 23.5331L10.5363 6.72677L17.4829 8.66883C18.8772 9.39088 21.8899 11.4076 23.7822 13.9721L26.3467 10.5611H27.4422C24.305 6.60228 19.7487 4.23695 19.5246 4.11246Z" fill="#e18700"/>
</svg>
