<svg xmlns="http://www.w3.org/2000/svg" width="60" height="47" viewBox="0 0 60 47" fill="none">
<path d="M26.6667 0.166687C24.8229 0.166687 23.3333 1.65627 23.3333 3.50002V14.1146C23.3333 14.6979 22.8646 15.1667 22.2812 15.1667C21.9062 15.1667 21.5521 14.9688 21.3646 14.6354L16.3646 5.89585C8.64583 9.69794 3.33333 17.6459 3.33333 26.8334V33.5H56.6667V26.5834C56.5729 17.5 51.2812 9.66669 43.6354 5.89585L38.6354 14.6354C38.4479 14.9688 38.0938 15.1667 37.7188 15.1667C37.1354 15.1667 36.6667 14.6979 36.6667 14.1146V3.50002C36.6667 1.65627 35.1771 0.166687 33.3333 0.166687H26.6667ZM1.72917 36.8334C0.770833 36.8334 0 37.6042 0 38.5625C0 39.0521 0.208333 39.5209 0.604167 39.8021C2.86458 41.4584 11.6458 46.8334 30 46.8334C48.3542 46.8334 57.1354 41.4584 59.3958 39.8021C59.7917 39.5104 60 39.0521 60 38.5625C60 37.6042 59.2292 36.8334 58.2708 36.8334H1.72917Z" fill="#e18700"/>
</svg>