<svg width="44" height="44" viewBox="0 0 44 44" fill="none" xmlns="http://www.w3.org/2000/svg">
<rect width="44" height="44" rx="22" fill="#F6F6F6"/>
<path d="M20 13H14C13.7348 13 13.4804 13.1054 13.2929 13.2929C13.1054 13.4804 13 13.7348 13 14V20C13 20.2652 13.1054 20.5196 13.2929 20.7071C13.4804 20.8946 13.7348 21 14 21H20C20.2652 21 20.5196 20.8946 20.7071 20.7071C20.8946 20.5196 21 20.2652 21 20V14C21 13.7348 20.8946 13.4804 20.7071 13.2929C20.5196 13.1054 20.2652 13 20 13ZM19 19H15V15H19V19ZM30 13H24C23.7348 13 23.4804 13.1054 23.2929 13.2929C23.1054 13.4804 23 13.7348 23 14V20C23 20.2652 23.1054 20.5196 23.2929 20.7071C23.4804 20.8946 23.7348 21 24 21H30C30.2652 21 30.5196 20.8946 30.7071 20.7071C30.8946 20.5196 31 20.2652 31 20V14C31 13.7348 30.8946 13.4804 30.7071 13.2929C30.5196 13.1054 30.2652 13 30 13ZM29 19H25V15H29V19ZM20 23H14C13.7348 23 13.4804 23.1054 13.2929 23.2929C13.1054 23.4804 13 23.7348 13 24V30C13 30.2652 13.1054 30.5196 13.2929 30.7071C13.4804 30.8946 13.7348 31 14 31H20C20.2652 31 20.5196 30.8946 20.7071 30.7071C20.8946 30.5196 21 30.2652 21 30V24C21 23.7348 20.8946 23.4804 20.7071 23.2929C20.5196 23.1054 20.2652 23 20 23ZM19 29H15V25H19V29ZM27 23C24.794 23 23 24.794 23 27C23 29.206 24.794 31 27 31C29.206 31 31 29.206 31 27C31 24.794 29.206 23 27 23ZM27 29C25.897 29 25 28.103 25 27C25 25.897 25.897 25 27 25C28.103 25 29 25.897 29 27C29 28.103 28.103 29 27 29Z" fill="#828282"/>
</svg>
