<svg width="44" height="44" viewBox="0 0 44 44" fill="none" xmlns="http://www.w3.org/2000/svg">
<rect width="44" height="44" rx="22" fill="white" fill-opacity="0.38"/>
<path d="M26.5186 26.5012C26.6936 26.3652 26.8526 26.2062 27.1696 25.8892L31.1266 21.9312C31.2226 21.8362 31.1786 21.6712 31.0516 21.6262C30.4324 21.4104 29.8703 21.0568 29.4076 20.5922C28.943 20.1295 28.5894 19.5674 28.3736 18.9482C28.3286 18.8212 28.1636 18.7772 28.0686 18.8732L24.1096 22.8302C23.7926 23.1472 23.6336 23.3062 23.4976 23.4812C23.3366 23.6882 23.1976 23.9112 23.0856 24.1472C22.9906 24.3472 22.9196 24.5612 22.7776 24.9872L22.5936 25.5372L22.3016 26.4122L22.0286 27.2322C21.9946 27.335 21.9898 27.4452 22.0148 27.5505C22.0397 27.6559 22.0935 27.7522 22.1701 27.8288C22.2466 27.9053 22.343 27.9591 22.4483 27.984C22.5536 28.009 22.6639 28.0042 22.7666 27.9702L23.5866 27.6972L24.4616 27.4052L25.0116 27.2212C25.4376 27.0792 25.6516 27.0092 25.8516 26.9132C26.0876 26.8002 26.3126 26.6632 26.5186 26.5012ZM32.3656 20.6922C32.5721 20.4927 32.7369 20.254 32.8502 19.9902C32.9635 19.7263 33.0231 19.4425 33.0256 19.1554C33.0281 18.8683 32.9734 18.5835 32.8647 18.3177C32.756 18.052 32.5954 17.8105 32.3924 17.6074C32.1894 17.4043 31.948 17.2437 31.6823 17.1349C31.4165 17.0261 31.1318 16.9713 30.8446 16.9737C30.5575 16.9761 30.2737 17.0357 30.0098 17.1489C29.7459 17.2621 29.5072 17.4267 29.3076 17.6332L29.1806 17.7612C29.1201 17.8209 29.075 17.8944 29.0492 17.9754C29.0234 18.0564 29.0177 18.1425 29.0326 18.2262C29.0526 18.3332 29.0876 18.4912 29.1526 18.6782C29.2826 19.0532 29.5286 19.5452 29.9916 20.0082C30.3656 20.3851 30.8204 20.672 31.3216 20.8472C31.5096 20.9122 31.6666 20.9472 31.7736 20.9672C31.8573 20.982 31.9434 20.9763 32.0244 20.9505C32.1054 20.9247 32.1789 20.8797 32.2386 20.8192L32.3656 20.6922Z" fill="white"/>
<path fill-rule="evenodd" clip-rule="evenodd" d="M14.172 13.172C13 14.343 13 16.229 13 20V24C13 27.771 13 29.657 14.172 30.828C15.343 32 17.229 32 21 32H23C26.771 32 28.657 32 29.828 30.828C30.981 29.676 31 27.832 31 24.18L28.182 26.998C27.912 27.268 27.691 27.489 27.442 27.684C27.1494 27.912 26.8329 28.1075 26.498 28.267C26.191 28.4047 25.8757 28.5232 25.554 28.622L23.242 29.393C22.875 29.5154 22.4811 29.5332 22.1046 29.4443C21.728 29.3554 21.3837 29.1635 21.1101 28.8899C20.8365 28.6163 20.6446 28.272 20.5557 27.8954C20.4668 27.5189 20.4846 27.125 20.607 26.758L20.881 25.938L21.356 24.512L21.377 24.446C21.498 24.084 21.597 23.788 21.733 23.502C21.893 23.167 22.088 22.851 22.316 22.559C22.511 22.309 22.732 22.089 23.002 21.819L27.008 17.812L28.12 16.7L28.247 16.573C28.5868 16.2322 28.9907 15.962 29.4354 15.7778C29.88 15.5937 30.3567 15.4992 30.838 15.5C30.687 14.47 30.394 13.737 29.828 13.172C28.657 12 26.771 12 23 12H21C17.229 12 15.343 12 14.172 13.172ZM17.25 19C17.25 18.8011 17.329 18.6103 17.4697 18.4697C17.6103 18.329 17.8011 18.25 18 18.25H24.5C24.6989 18.25 24.8897 18.329 25.0303 18.4697C25.171 18.6103 25.25 18.8011 25.25 19C25.25 19.1989 25.171 19.3897 25.0303 19.5303C24.8897 19.671 24.6989 19.75 24.5 19.75H18C17.8011 19.75 17.6103 19.671 17.4697 19.5303C17.329 19.3897 17.25 19.1989 17.25 19ZM17.25 23C17.25 22.8011 17.329 22.6103 17.4697 22.4697C17.6103 22.329 17.8011 22.25 18 22.25H20.5C20.6989 22.25 20.8897 22.329 21.0303 22.4697C21.171 22.6103 21.25 22.8011 21.25 23C21.25 23.1989 21.171 23.3897 21.0303 23.5303C20.8897 23.671 20.6989 23.75 20.5 23.75H18C17.8011 23.75 17.6103 23.671 17.4697 23.5303C17.329 23.3897 17.25 23.1989 17.25 23ZM17.25 27C17.25 26.8011 17.329 26.6103 17.4697 26.4697C17.6103 26.329 17.8011 26.25 18 26.25H19.5C19.6989 26.25 19.8897 26.329 20.0303 26.4697C20.171 26.6103 20.25 26.8011 20.25 27C20.25 27.1989 20.171 27.3897 20.0303 27.5303C19.8897 27.671 19.6989 27.75 19.5 27.75H18C17.8011 27.75 17.6103 27.671 17.4697 27.5303C17.329 27.3897 17.25 27.1989 17.25 27Z" fill="white"/>
</svg>
