<svg width="44" height="44" viewBox="0 0 44 44" fill="none" xmlns="http://www.w3.org/2000/svg">
<rect width="44" height="44" rx="22" fill="#F6F6F6"/>
<path d="M20 13.9998C18.4087 13.9998 16.8826 14.632 15.7574 15.7572C14.6321 16.8824 14 18.4085 14 19.9998C14 21.5911 14.6321 23.1173 15.7574 24.2425C16.8826 25.3677 18.4087 25.9998 20 25.9998C21.5913 25.9998 23.1174 25.3677 24.2426 24.2425C25.3679 23.1173 26 21.5911 26 19.9998C26 18.4085 25.3679 16.8824 24.2426 15.7572C23.1174 14.632 21.5913 13.9998 20 13.9998ZM12 19.9998C12.0002 18.7267 12.3042 17.472 12.8868 16.34C13.4695 15.208 14.3138 14.2314 15.3498 13.4913C16.3858 12.7513 17.5834 12.2692 18.8432 12.0851C20.1029 11.901 21.3884 12.0202 22.5928 12.4328C23.7973 12.8454 24.8858 13.5396 25.768 14.4575C26.6502 15.3754 27.3006 16.4907 27.6651 17.7105C28.0296 18.9304 28.0977 20.2196 27.8638 21.471C27.6298 22.7225 27.1006 23.9001 26.32 24.9058L31.707 30.2928C31.8892 30.4814 31.99 30.734 31.9877 30.9962C31.9854 31.2584 31.8802 31.5092 31.6948 31.6947C31.5094 31.8801 31.2586 31.9852 30.9964 31.9875C30.7342 31.9898 30.4816 31.889 30.293 31.7068L24.906 26.3198C23.7235 27.2379 22.307 27.8058 20.8178 27.9588C19.3285 28.1118 17.8262 27.8439 16.4816 27.1855C15.1371 26.5271 14.0043 25.5046 13.212 24.2343C12.4198 22.964 11.9998 21.4969 12 19.9998Z" fill="#828282"/>
</svg>
