<svg width="37" height="37" viewBox="0 0 37 37" fill="none" xmlns="http://www.w3.org/2000/svg">
<rect x="0.5" y="0.5" width="36" height="36" rx="10" fill="#E18700"/>
<path d="M24.9896 18.5C24.9896 14.812 26.522 12.74 27.722 12.74H29.3C28.4984 11.328 27.8348 10.5 24.9104 10.5H12.9008C8.42 10.5 6.5 15.088 6.5 18.5C6.5 21.912 8.42 26.5 12.9008 26.5H24.9104C27.836 26.5 28.4984 25.672 29.3 24.26H27.722C26.522 24.26 24.9896 22.188 24.9896 18.5ZM21.7256 20.8933C21.5288 21.2267 20.9144 20.9147 20.9144 20.9147L17.366 19.1307C17.366 19.1307 17.0492 20.024 16.8056 20.652C16.5596 21.28 16.3724 21.9907 15.3548 21.196C14.336 20.3987 11.0576 16.8627 11.0576 16.8627C11.0576 16.8627 10.6436 16.484 10.85 16.128C11.0456 15.792 11.6612 16.1067 11.6612 16.1067L15.2084 17.888C15.2084 17.888 15.5264 16.9973 15.77 16.3693C16.016 15.7427 16.2032 15.028 17.2208 15.8253C18.2396 16.62 21.5168 20.1587 21.5168 20.1587C21.5168 20.1587 21.9308 20.536 21.7256 20.8933ZM29.1488 15.7373H28.25C27.5792 15.7373 26.924 16.7427 26.924 18.376C26.924 20.012 27.5804 21.016 28.25 21.016H29.1488C29.8208 21.016 30.5 20.0107 30.5 18.376C30.5 16.7427 29.8208 15.7373 29.1488 15.7373Z" fill="white"/>
</svg>
