<svg width="37" height="37" viewBox="0 0 37 37" fill="none" xmlns="http://www.w3.org/2000/svg">
<rect x="0.5" y="0.5" width="36" height="36" rx="10" fill="#E18700"/>
<path d="M25.0455 25.5909C24.6115 25.5909 24.1952 25.4185 23.8884 25.1116C23.5815 24.8048 23.4091 24.3885 23.4091 23.9545C23.4091 23.5206 23.5815 23.1043 23.8884 22.7975C24.1952 22.4906 24.6115 22.3182 25.0455 22.3182C25.4794 22.3182 25.8957 22.4906 26.2025 22.7975C26.5094 23.1043 26.6818 23.5206 26.6818 23.9545C26.6818 24.3885 26.5094 24.8048 26.2025 25.1116C25.8957 25.4185 25.4794 25.5909 25.0455 25.5909ZM26.6818 15.7727L28.82 18.5H23.9545V15.7727M11.9545 25.5909C11.5206 25.5909 11.1043 25.4185 10.7975 25.1116C10.4906 24.8048 10.3182 24.3885 10.3182 23.9545C10.3182 23.5206 10.4906 23.1043 10.7975 22.7975C11.1043 22.4906 11.5206 22.3182 11.9545 22.3182C12.3885 22.3182 12.8048 22.4906 13.1116 22.7975C13.4185 23.1043 13.5909 23.5206 13.5909 23.9545C13.5909 24.3885 13.4185 24.8048 13.1116 25.1116C12.8048 25.4185 12.3885 25.5909 11.9545 25.5909ZM27.2273 14.1364H23.9545V9.77273H8.68182C7.47091 9.77273 6.5 10.7436 6.5 11.9545V23.9545H8.68182C8.68182 24.8225 9.02662 25.655 9.64038 26.2687C10.2541 26.8825 11.0866 27.2273 11.9545 27.2273C12.8225 27.2273 13.655 26.8825 14.2687 26.2687C14.8825 25.655 15.2273 24.8225 15.2273 23.9545H21.7727C21.7727 24.8225 22.1175 25.655 22.7313 26.2687C23.345 26.8825 24.1775 27.2273 25.0455 27.2273C25.9134 27.2273 26.7459 26.8825 27.3596 26.2687C27.9734 25.655 28.3182 24.8225 28.3182 23.9545H30.5V18.5L27.2273 14.1364Z" fill="white"/>
</svg>
