<svg width="37" height="37" viewBox="0 0 37 37" fill="none" xmlns="http://www.w3.org/2000/svg">
<rect x="0.5" y="0.5" width="36" height="36" rx="10" fill="#E18700"/>
<path d="M26.3171 26.2682C26.9625 26.2682 27.5122 26.818 27.5122 27.4634C27.5122 28.1087 26.9625 28.6585 26.3171 28.6585H11.9757C11.3304 28.6585 10.7806 28.1087 10.7806 27.4634C10.7806 26.818 11.3304 26.2682 11.9757 26.2682H26.3171ZM26.3171 24.4756H11.9757C10.3384 24.4756 8.98794 25.8261 8.98794 27.4634C8.98794 29.1007 10.3384 30.4511 11.9757 30.4511H26.3171C27.1095 30.4511 27.8695 30.1364 28.4298 29.576C28.9901 29.0157 29.3049 28.2558 29.3049 27.4634C29.3049 26.6709 28.9901 25.911 28.4298 25.3507C27.8695 24.7904 27.1095 24.4756 26.3171 24.4756ZM29.3049 17.3049H25.7195V12.5244H19.744L16.1586 17.3049V23.2805H30.5L29.3049 17.3049ZM17.9991 17.3049L20.3415 14.3171H23.3293V17.3049H17.9991ZM15.8718 8.23397L9.89623 6.54886L6.59771 18.2968C6.19138 19.8266 7.08771 21.4161 8.62941 21.8463L10.0157 22.2288L13.9477 18.8466L9.31062 17.5559L11.5574 9.48884L14.8918 10.421C15.5611 10.7676 17.0072 11.7357 17.9154 12.9666L19.1464 11.3293H19.6723C18.1664 9.42908 15.9794 8.29372 15.8718 8.23397Z" fill="white"/>
</svg>
