<svg width="37" height="37" viewBox="0 0 37 37" fill="none" xmlns="http://www.w3.org/2000/svg">
<rect x="0.5" y="0.5" width="36" height="36" rx="10" fill="#E18700"/>
<path d="M25.5 10.0235V10.0551C25.5 11.2247 23.0794 12.1772 18.5 12.1772C13.6903 12.1772 11.5 11.2247 11.5 10.0551V10.0009C11.5 9.32345 12.2542 8.78603 13.7445 8.40668C15.0181 8.08152 16.7071 7.90539 18.5 7.90539C20.2884 7.90539 21.9774 8.08152 23.2555 8.40668C24.7458 8.78603 25.5 9.32345 25.5 10.0009V10.0235ZM17.5065 10.0009C17.5065 9.81119 16.9103 9.66216 16.1787 9.66216C15.4426 9.66216 14.8465 9.81119 14.8465 10.0009C14.8465 10.186 15.4426 10.3396 16.1787 10.3396C16.9103 10.3396 17.5065 10.186 17.5065 10.0009ZM25.0755 14.4217V11.703C24.6826 12.0011 24.0865 12.254 23.2871 12.4572C22 12.7869 20.3019 12.963 18.5 12.963C16.6981 12.963 15 12.7824 13.7129 12.4572C12.9135 12.254 12.3174 12.0056 11.9245 11.703V14.4217C11.64 14.6611 11.5 14.9275 11.5 15.2211V15.2707C11.5 16.4404 13.6903 17.3888 18.5 17.3888C23.0794 17.3888 25.5 16.4404 25.5 15.2707V15.2211C25.5 14.9275 25.36 14.6611 25.0755 14.4217ZM25.0755 20.243V16.9236C24.6826 17.2217 24.0865 17.4746 23.2871 17.6778C22 18.003 20.3019 18.1836 18.5 18.1836C16.6981 18.1836 15 18.003 13.7129 17.6778C12.9135 17.4746 12.3174 17.2217 11.9245 16.9236V20.243C11.64 20.4824 11.5 20.7488 11.5 21.0424V21.083C11.5 22.2527 13.6903 23.2011 18.5 23.2011C23.0794 23.2011 25.5 22.2527 25.5 21.083V21.0424C25.5 20.7443 25.36 20.4778 25.0755 20.243ZM25.4774 26.8095C25.4277 26.5882 25.2968 26.3849 25.0755 26.1998V22.7449C24.6826 23.043 24.0865 23.2959 23.2871 23.4991C22 23.8243 20.3019 24.0049 18.5 24.0049C16.6981 24.0049 15 23.8243 13.7129 23.4991C12.9135 23.2959 12.3174 23.043 11.9245 22.7449V26.1998C11.7032 26.3849 11.5723 26.5882 11.5226 26.8095C11.509 26.8636 11.5 26.9224 11.5 26.9765V26.9991C11.5 27.2565 11.6039 27.4914 11.8161 27.7036C12.5839 28.5165 14.7426 29.0946 18.5 29.0946C21.2187 29.0946 23.1787 28.7604 24.3213 28.2411C25.1026 27.9024 25.5 27.4914 25.5 26.9991V26.9765C25.5 26.9224 25.491 26.8636 25.4774 26.8095Z" fill="white"/>
</svg>
