<svg width="37" height="37" viewBox="0 0 37 37" fill="none" xmlns="http://www.w3.org/2000/svg">
<rect x="0.5" y="0.5" width="36" height="36" rx="10" fill="#E18700"/>
<path d="M17.1667 9.16667C16.4292 9.16667 15.8333 9.7625 15.8333 10.5V14.7458C15.8333 14.9792 15.6458 15.1667 15.4125 15.1667C15.2625 15.1667 15.1208 15.0875 15.0458 14.9542L13.0458 11.4583C9.95833 12.9792 7.83333 16.1583 7.83333 19.8333V22.5H29.1667V19.7333C29.1292 16.1 27.0125 12.9667 23.9542 11.4583L21.9542 14.9542C21.8792 15.0875 21.7375 15.1667 21.5875 15.1667C21.3542 15.1667 21.1667 14.9792 21.1667 14.7458V10.5C21.1667 9.7625 20.5708 9.16667 19.8333 9.16667H17.1667ZM7.19167 23.8333C6.80833 23.8333 6.5 24.1417 6.5 24.525C6.5 24.7208 6.58333 24.9083 6.74167 25.0208C7.64583 25.6833 11.1583 27.8333 18.5 27.8333C25.8417 27.8333 29.3542 25.6833 30.2583 25.0208C30.4167 24.9042 30.5 24.7208 30.5 24.525C30.5 24.1417 30.1917 23.8333 29.8083 23.8333H7.19167Z" fill="white"/>
</svg>
