<svg xmlns="http://www.w3.org/2000/svg" width="60" height="45" viewBox="0 0 60 45" fill="none">
  <path d="M6 0C5.20435 0 4.44129 0.316071 3.87868 0.87868C3.31607 1.44129 3 2.20435 3 3V18C1.62 18 0.42 18.93 0.0899999 20.28V29.91H0.87C1.95 28.11 3.9 27 6 27H33C35.1 27 37.05 28.11 38.13 29.91H42.09L42 21C42 20.2044 41.6839 19.4413 41.1213 18.8787C40.5587 18.3161 39.7957 18 39 18H33V12C33 11.2044 32.6839 10.4413 32.1213 9.87868C31.5587 9.31607 30.7956 9 30 9C29.2044 9 28.4413 9.31607 27.8787 9.87868C27.3161 10.4413 27 11.2044 27 12V18H21V3C21 2.20435 20.6839 1.44129 20.1213 0.87868C19.5587 0.316071 18.7956 0 18 0H6ZM9 6H15V21H9V6ZM45 21V45H60V42L51 39L48 21H45ZM6 33C4.4087 33 2.88258 33.6321 1.75736 34.7574C0.632141 35.8826 0 37.4087 0 39C0 40.5913 0.632141 42.1174 1.75736 43.2426C2.88258 44.3679 4.4087 45 6 45H33C34.5913 45 36.1174 44.3679 37.2426 43.2426C38.3679 42.1174 39 40.5913 39 39C39 37.4087 38.3679 35.8826 37.2426 34.7574C36.1174 33.6321 34.5913 33 33 33H6Z" fill="#e18700"/>
</svg>