<svg xmlns="http://www.w3.org/2000/svg" width="50" height="49" viewBox="0 0 50 49" fill="none">
<path d="M41.0577 0.0474541C40.7762 0.050686 40.727 0.110737 40.7222 0.116263C40.7173 0.121892 40.6647 0.179337 40.7016 0.458428C40.7386 0.73752 40.8851 1.1731 41.1557 1.6706C41.6969 2.66562 42.7113 3.90865 44.0321 5.05275C45.3528 6.19695 46.7277 7.0237 47.7898 7.41747C48.3208 7.6143 48.7729 7.69719 49.0544 7.69395C49.3359 7.69083 49.3852 7.63078 49.3901 7.62515C49.3949 7.61952 49.4473 7.56218 49.4104 7.28309C49.3734 7.00399 49.227 6.56842 48.9563 6.07091C48.4152 5.0759 47.4007 3.83286 46.0799 2.68866C44.7592 1.54456 43.3841 0.717816 42.322 0.324043C41.791 0.127105 41.3393 0.0442222 41.0577 0.0474541ZM25 3.98497C11.469 3.98497 0.5 14.954 0.5 28.485C0.5 35.0477 3.08032 41.0077 7.28181 45.4059C-2.23628 50.49 18.0319 48.502 25 48.502C31.9502 48.502 51.4273 51.3336 45.7383 42.8015C48.75 37.4978 49.5 35.0658 49.5 28.485C49.5 21.7258 46.7627 15.6061 42.3363 11.1735L34.9218 15.5695L38.1345 7.8004C34.3384 5.38491 29.8329 3.98497 25 3.98497ZM41.2657 5.13907L38.8074 11.0841L44.341 7.80311L42.8043 6.47198L42.8035 6.47125L42.8026 6.47042L41.2657 5.13907ZM25 12.5339C33.7984 12.5339 40.9511 19.6865 40.9511 28.485C40.9511 37.2834 33.7984 44.436 25 44.436C16.2016 44.436 9.04894 37.2834 9.04894 28.485C9.04894 19.6865 16.2016 12.5339 25 12.5339ZM25 14.4105C22.8714 14.4105 20.8551 14.8817 19.0481 15.7243C20.2519 19.1522 22.3121 23.4807 25 23.4807C27.6922 23.4807 29.6838 19.1385 30.9167 15.708C29.1186 14.8757 27.1147 14.4105 25 14.4105ZM35.2954 18.881C32.4061 21.0852 28.921 24.3846 29.7522 26.9427C30.5842 29.5036 35.3307 30.0556 38.9745 30.168C39.04 29.616 39.0745 29.0547 39.0745 28.485C39.0745 24.7691 37.6404 21.3944 35.2954 18.881ZM14.6811 18.9063C12.35 21.4169 10.9255 24.7815 10.9255 28.485C10.9255 29.0636 10.961 29.6337 11.0285 30.1937C14.6601 30.1077 19.4087 29.4855 20.2389 26.9305C21.0702 24.3719 17.5616 21.1388 14.6811 18.9063ZM21.9986 23.4563C21.8279 23.4612 21.6618 23.5126 21.5182 23.6049C21.3745 23.6972 21.2588 23.8269 21.1834 23.9802C21.1081 24.1334 21.0759 24.3043 21.0905 24.4744C21.1051 24.6445 21.1659 24.8074 21.2662 24.9456C21.3612 25.0764 21.4884 25.1805 21.6355 25.2477C21.7825 25.3149 21.9445 25.3429 22.1056 25.3291C22.2667 25.3153 22.4215 25.2601 22.5549 25.1688C22.6884 25.0776 22.796 24.9534 22.8674 24.8083C22.9387 24.6632 22.9714 24.5021 22.9622 24.3407C22.953 24.1793 22.9022 24.023 22.8148 23.887C22.7274 23.751 22.6063 23.6398 22.4633 23.5644C22.3203 23.4889 22.1602 23.4517 21.9986 23.4563ZM28.0014 23.4563C27.8398 23.4517 27.6797 23.4889 27.5367 23.5644C27.3937 23.6398 27.2726 23.751 27.1852 23.887C27.0978 24.023 27.047 24.1793 27.0378 24.3407C27.0286 24.5021 27.0613 24.6632 27.1326 24.8083C27.204 24.9534 27.3116 25.0776 27.4451 25.1688C27.5785 25.2601 27.7333 25.3153 27.8944 25.3291C28.0555 25.3429 28.2175 25.3149 28.3645 25.2477C28.5116 25.1805 28.6388 25.0764 28.7338 24.9456C28.8341 24.8074 28.8949 24.6445 28.9095 24.4744C28.9241 24.3043 28.8919 24.1334 28.8166 23.9802C28.7412 23.8269 28.6255 23.6972 28.4818 23.6049C28.3382 23.5126 28.1721 23.4612 28.0014 23.4563ZM25 25.1488C23.1575 25.1488 21.6638 26.6425 21.6638 28.485C21.6638 30.3275 23.1575 31.8211 25 31.8211C26.8425 31.8211 28.3362 30.3275 28.3362 28.485C28.3362 26.6425 26.8425 25.1488 25 25.1488ZM20.1733 29.1144C20.0264 29.1165 19.882 29.153 19.7518 29.2211C19.6215 29.2893 19.5091 29.387 19.4236 29.5065C19.3381 29.626 19.2818 29.7639 19.2593 29.9091C19.2369 30.0544 19.2488 30.2028 19.2942 30.3426C19.3711 30.5792 19.5389 30.7756 19.7606 30.8886C19.9823 31.0016 20.2398 31.0219 20.4765 30.945C20.6901 30.8756 20.8717 30.7319 20.9884 30.5401C21.105 30.3482 21.149 30.1208 21.1123 29.8993C21.0756 29.6777 20.9607 29.4767 20.7884 29.3326C20.6161 29.1886 20.3978 29.1112 20.1733 29.1144ZM29.7756 29.115C29.5413 29.1244 29.319 29.2211 29.1525 29.3862C28.986 29.5513 28.8873 29.7727 28.8759 30.0069C28.8645 30.2411 28.9412 30.4711 29.0909 30.6516C29.2407 30.8321 29.4525 30.9499 29.6848 30.982C29.9171 31.0141 30.1529 30.958 30.3459 30.8249C30.5389 30.6917 30.6751 30.4911 30.7276 30.2626C30.7801 30.0341 30.7451 29.7942 30.6296 29.5902C30.514 29.3861 30.3263 29.2327 30.1033 29.1602C29.9976 29.1259 29.8867 29.1105 29.7756 29.115ZM20.2476 32.0044C17.9968 32.0153 15.0098 33.7592 12.697 35.3331C14.6809 38.8953 18.1663 41.5012 22.3034 42.3012C23.3449 38.8201 24.2238 34.1048 22.0484 32.5244C21.5424 32.1567 20.929 32.0011 20.2476 32.0044ZM29.7365 32.0065C29.0505 32.0065 28.4342 32.1646 27.9281 32.5322C25.7497 34.1149 26.6913 38.7985 27.7104 42.2986C31.848 41.4943 35.3323 38.8832 37.3123 35.3163C35.0181 33.7291 32.0021 32.0065 29.7365 32.0064V32.0065ZM25 32.6114C24.7511 32.6114 24.5125 32.7102 24.3365 32.8862C24.1606 33.0622 24.0617 33.3008 24.0617 33.5497C24.0617 33.7985 24.1606 34.0372 24.3365 34.2132C24.5125 34.3891 24.7511 34.488 25 34.488C25.2489 34.488 25.4875 34.3891 25.6635 34.2132C25.8394 34.0372 25.9383 33.7985 25.9383 33.5497C25.9383 33.3008 25.8394 33.0622 25.6635 32.8862C25.4875 32.7102 25.2489 32.6114 25 32.6114Z" fill="#e18700"/>
</svg>