<svg xmlns="http://www.w3.org/2000/svg" width="48" height="49" viewBox="0 0 48 49" fill="none">
  <path d="M2.99981 0.501336L0 3.50114L6.59957 12.7435C6.87741 13.1327 7.24426 13.4499 7.66954 13.6685C8.09483 13.8872 8.56622 14.001 9.04442 14.0005H9.2544C9.64882 14.0002 10.0394 14.0776 10.4039 14.2284C10.7683 14.3793 11.0994 14.6005 11.3783 14.8794L19.4027 22.9039L11.5523 30.8654C10.2095 30.4701 8.79316 30.3932 7.41551 30.6407C6.03787 30.8882 4.73685 31.4533 3.61566 32.2912C2.49447 33.1291 1.58396 34.2168 0.956349 35.4679C0.328737 36.719 0.00129652 38.0991 0 39.4988C0.00179827 40.7885 0.280793 42.0628 0.818081 43.2353C1.35537 44.4078 2.1384 45.4511 3.11412 46.2946C4.08983 47.138 5.23544 47.7619 6.47333 48.1239C7.71121 48.4859 9.01245 48.5776 10.2889 48.3928C11.5653 48.208 12.7871 47.751 13.8715 47.0528C14.9559 46.3546 15.8775 45.4314 16.5739 44.3459C17.2704 43.2603 17.7254 42.0378 17.9081 40.7611C18.0908 39.4843 17.9969 38.1833 17.6329 36.946L25.5943 29.0955L28.4982 31.9993L27.5832 34.7411C27.4074 35.2696 27.3822 35.8366 27.5104 36.3786C27.6386 36.9206 27.9152 37.4162 28.3092 37.8099L38.1185 47.6193C38.3965 47.8988 38.7269 48.1207 39.0909 48.272C39.4549 48.4234 39.8452 48.5013 40.2394 48.5013C40.6336 48.5013 41.0239 48.4234 41.3879 48.272C41.7519 48.1207 42.0823 47.8988 42.3603 47.6193L47.118 42.8616C47.3975 42.5837 47.6193 42.2532 47.7707 41.8892C47.9221 41.5252 48 41.1349 48 40.7407C48 40.3465 47.9221 39.9562 47.7707 39.5922C47.6193 39.2283 47.3975 38.8978 47.118 38.6199L37.3086 28.8105C36.9149 28.4165 36.4193 28.14 35.8773 28.0117C35.3353 27.8835 34.7683 27.9087 34.2398 28.0845L31.498 28.9995L28.6181 26.1197L36.6576 18.1912C37.9913 18.5472 39.3889 18.5922 40.7427 18.3226C42.0965 18.0531 43.3703 17.4762 44.466 16.6365C45.5616 15.7969 46.4497 14.7168 47.0619 13.4796C47.6741 12.2424 47.994 10.8811 47.9969 9.50075C47.9969 8.69381 47.8919 7.91086 47.6909 7.1699L41.2713 13.5925L35.9977 12.5006L34.9057 7.2299L41.3283 0.807316C39.8005 0.396526 38.1914 0.395759 36.6632 0.805093C35.135 1.21443 33.7417 2.01939 32.6237 3.13885C31.5058 4.25831 30.7027 5.6527 30.2955 7.18147C29.8882 8.71023 29.8912 10.3193 30.304 11.8466L22.3846 19.8801L14.3781 11.8796C13.8155 11.3172 13.4993 10.5543 13.4991 9.75874V9.54575C13.4992 9.06806 13.3851 8.59727 13.1665 8.17254C12.9479 7.74782 12.631 7.38145 12.2422 7.10391L2.99981 0.501336ZM31.9359 32.4373C32.0753 32.2976 32.2408 32.1868 32.423 32.1112C32.6052 32.0355 32.8006 31.9966 32.9979 31.9966C33.1952 31.9966 33.3905 32.0355 33.5727 32.1112C33.755 32.1868 33.9205 32.2976 34.0598 32.4373L42.8012 41.1817C43.0744 41.4646 43.2256 41.8435 43.2222 42.2367C43.2188 42.63 43.0611 43.0062 42.783 43.2843C42.5049 43.5624 42.1287 43.7201 41.7354 43.7235C41.3421 43.727 40.9633 43.5758 40.6804 43.3026L31.9359 34.5611C31.7963 34.4218 31.6854 34.2563 31.6098 34.0741C31.5342 33.8918 31.4953 33.6965 31.4953 33.4992C31.4953 33.3019 31.5342 33.1066 31.6098 32.9243C31.6854 32.7421 31.7963 32.5766 31.9359 32.4373ZM8.99942 33.4992L10.4123 34.2252L11.9992 34.3031L12.8602 35.6381L14.1951 36.499L14.2731 38.0859L14.999 39.4988L14.2731 40.9117L14.1951 42.4986L12.8602 43.3596L11.9992 44.6945L10.4123 44.7725L8.99942 45.4984L7.58651 44.7725L5.99961 44.6945L5.13867 43.3596L3.80375 42.4986L3.72576 40.9117L2.99981 39.4988L3.72576 38.0859L3.80375 36.499L5.13867 35.6381L5.99961 34.3031L7.58651 34.2252L8.99942 33.4992Z" fill="#e18700"/>
</svg>