<svg width="37" height="37" viewBox="0 0 37 37" fill="none" xmlns="http://www.w3.org/2000/svg">
<rect x="0.5" y="0.5" width="36" height="36" rx="10" fill="#E18700"/>
<path d="M7.9999 6.50134L6.5 8.00116L9.79979 12.6221C9.9387 12.8167 10.1221 12.9753 10.3348 13.0846C10.5474 13.1939 10.7831 13.2508 11.0222 13.2505H11.1272C11.3244 13.2504 11.5197 13.2891 11.7019 13.3645C11.8841 13.4399 12.0497 13.5505 12.1891 13.69L16.2014 17.702L12.2761 21.6825C11.6048 21.4849 10.8966 21.4464 10.2078 21.5702C9.51894 21.6939 8.86843 21.9765 8.30783 22.3954C7.74724 22.8143 7.29198 23.3581 6.97817 23.9836C6.66437 24.6091 6.50065 25.2992 6.5 25.999C6.5009 26.6438 6.6404 27.2809 6.90904 27.8671C7.17768 28.4534 7.5692 28.975 8.05706 29.3967C8.54492 29.8184 9.11772 30.1303 9.73666 30.3113C10.3556 30.4923 11.0062 30.5381 11.6444 30.4457C12.2827 30.3534 12.8935 30.1249 13.4357 29.7758C13.9779 29.4267 14.4388 28.9651 14.787 28.4224C15.1352 27.8797 15.3627 27.2684 15.454 26.6301C15.5454 25.9918 15.4985 25.3413 15.3164 24.7226L19.2972 20.7976L20.7491 22.2494L20.2916 23.6203C20.2037 23.8845 20.1911 24.168 20.2552 24.439C20.3193 24.71 20.4576 24.9578 20.6546 25.1546L25.5593 30.059C25.6982 30.1988 25.8635 30.3097 26.0455 30.3854C26.2274 30.461 26.4226 30.5 26.6197 30.5C26.8168 30.5 27.012 30.461 27.1939 30.3854C27.3759 30.3097 27.5412 30.1988 27.6801 30.059L30.059 27.6803C30.1987 27.5413 30.3097 27.3761 30.3853 27.1941C30.461 27.0121 30.5 26.817 30.5 26.6199C30.5 26.4228 30.461 26.2277 30.3853 26.0457C30.3097 25.8637 30.1987 25.6985 30.059 25.5595L25.1543 20.6551C24.9574 20.4582 24.7096 20.3199 24.4386 20.2558C24.1676 20.1917 23.8841 20.2043 23.6199 20.2922L22.249 20.7496L20.8091 19.3098L24.8288 15.3458C25.4957 15.5238 26.1945 15.5462 26.8714 15.4115C27.5483 15.2767 28.1852 14.9883 28.733 14.5685C29.2808 14.1487 29.7249 13.6087 30.031 12.9901C30.337 12.3715 30.497 11.6909 30.4984 11.0008C30.4984 10.5973 30.446 10.2059 30.3455 9.83544L27.1357 13.0466L24.4988 12.5006L23.9529 9.86543L27.1642 6.65432C26.4003 6.44894 25.5957 6.44855 24.8316 6.65321C24.0675 6.85786 23.3708 7.26033 22.8119 7.82002C22.2529 8.37972 21.8514 9.07688 21.6477 9.84122C21.4441 10.6056 21.4456 11.4101 21.652 12.1737L17.6923 16.1902L13.689 12.1902C13.4077 11.9089 13.2496 11.5275 13.2496 11.1298V11.0233C13.2496 10.7845 13.1926 10.5491 13.0833 10.3367C12.9739 10.1244 12.8155 9.9412 12.6211 9.80244L7.9999 6.50134ZM22.468 22.4684C22.5376 22.3986 22.6204 22.3432 22.7115 22.3054C22.8026 22.2676 22.9003 22.2481 22.9989 22.2481C23.0976 22.2481 23.1953 22.2676 23.2864 22.3054C23.3775 22.3432 23.4602 22.3986 23.5299 22.4684L27.9006 26.8404C28.0372 26.9818 28.1128 27.1713 28.1111 27.3679C28.1094 27.5645 28.0305 27.7526 27.8915 27.8916C27.7524 28.0307 27.5643 28.1095 27.3677 28.1112C27.1711 28.1129 26.9816 28.0374 26.8402 27.9008L22.468 23.5303C22.3981 23.4606 22.3427 23.3779 22.3049 23.2868C22.2671 23.1957 22.2476 23.098 22.2476 22.9994C22.2476 22.9007 22.2671 22.803 22.3049 22.7119C22.3427 22.6208 22.3981 22.5381 22.468 22.4684ZM10.9997 22.9994L11.7062 23.3623L12.4996 23.4013L12.9301 24.0687L13.5975 24.4992L13.6365 25.2926L13.9995 25.999L13.6365 26.7054L13.5975 27.4988L12.9301 27.9293L12.4996 28.5967L11.7062 28.6357L10.9997 28.9986L10.2933 28.6357L9.49981 28.5967L9.06933 27.9293L8.40188 27.4988L8.36288 26.7054L7.9999 25.999L8.36288 25.2926L8.40188 24.4992L9.06933 24.0687L9.49981 23.4013L10.2933 23.3623L10.9997 22.9994Z" fill="white"/>
</svg>
