<svg xmlns="http://www.w3.org/2000/svg" width="66" height="47" viewBox="0 0 66 47" fill="none">
  <path d="M50.7273 41.9844C49.5519 41.9844 48.4246 41.535 47.5935 40.735C46.7624 39.935 46.2955 38.8501 46.2955 37.7188C46.2955 36.5874 46.7624 35.5025 47.5935 34.7025C48.4246 33.9025 49.5519 33.4531 50.7273 33.4531C51.9027 33.4531 53.0299 33.9025 53.861 34.7025C54.6922 35.5025 55.1591 36.5874 55.1591 37.7188C55.1591 38.8501 54.6922 39.935 53.861 40.735C53.0299 41.535 51.9027 41.9844 50.7273 41.9844ZM55.1591 16.3906L60.95 23.5H47.7727V16.3906M15.2727 41.9844C14.0973 41.9844 12.9701 41.535 12.139 40.735C11.3078 39.935 10.8409 38.8501 10.8409 37.7188C10.8409 36.5874 11.3078 35.5025 12.139 34.7025C12.9701 33.9025 14.0973 33.4531 15.2727 33.4531C16.4481 33.4531 17.5754 33.9025 18.4065 34.7025C19.2376 35.5025 19.7045 36.5874 19.7045 37.7188C19.7045 38.8501 19.2376 39.935 18.4065 40.735C17.5754 41.535 16.4481 41.9844 15.2727 41.9844ZM56.6364 12.125H47.7727V0.75H6.40909C3.12955 0.75 0.5 3.28094 0.5 6.4375V37.7188H6.40909C6.40909 39.9814 7.34294 42.1513 9.00519 43.7513C10.6674 45.3512 12.9219 46.25 15.2727 46.25C17.6235 46.25 19.878 45.3512 21.5403 43.7513C23.2025 42.1513 24.1364 39.9814 24.1364 37.7188H41.8636C41.8636 39.9814 42.7975 42.1513 44.4597 43.7513C46.122 45.3512 48.3765 46.25 50.7273 46.25C53.0781 46.25 55.3326 45.3512 56.9948 43.7513C58.6571 42.1513 59.5909 39.9814 59.5909 37.7188H65.5V23.5L56.6364 12.125Z" fill="#e18700"/>
</svg>