<svg width="37" height="37" viewBox="0 0 37 37" fill="none" xmlns="http://www.w3.org/2000/svg">
<rect x="0.5" y="0.5" width="36" height="36" rx="10" fill="#E18700"/>
<path d="M26.365 6.52324C26.2271 6.52482 26.203 6.55423 26.2007 6.55694C26.1983 6.5597 26.1725 6.58783 26.1906 6.72453C26.2087 6.86123 26.2804 7.07457 26.413 7.31825C26.6781 7.8056 27.1749 8.41444 27.8219 8.97481C28.4687 9.53524 29.1422 9.94017 29.6623 10.133C29.9224 10.2294 30.1439 10.27 30.2818 10.2685C30.4196 10.2669 30.4438 10.2375 30.4462 10.2348C30.4485 10.232 30.4742 10.2039 30.4561 10.0672C30.438 9.93052 30.3663 9.71718 30.2337 9.4735C29.9687 8.98615 29.4718 8.37731 28.8249 7.81689C28.178 7.25651 27.5044 6.85158 26.9843 6.65871C26.7242 6.56225 26.5029 6.52165 26.365 6.52324ZM18.5 8.45182C11.8726 8.45182 6.5 13.8244 6.5 20.4518C6.5 23.6662 7.76383 26.5854 9.8217 28.7396C5.15978 31.2298 15.087 30.2561 18.5 30.2561C21.9042 30.2561 31.444 31.643 28.6575 27.464C30.1326 24.8663 30.5 23.6751 30.5 20.4518C30.5 17.1412 29.1593 14.1438 26.9912 11.9727L23.3596 14.1259L24.9332 10.3206C23.0739 9.1375 20.8671 8.45182 18.5 8.45182ZM26.4669 9.01709L25.2628 11.929L27.9732 10.3219L27.2205 9.66994L27.2201 9.66959L27.2197 9.66918L26.4669 9.01709ZM18.5 12.639C22.8094 12.639 26.3128 16.1424 26.3128 20.4518C26.3128 24.7612 22.8094 28.2646 18.5 28.2646C14.1906 28.2646 10.6872 24.7612 10.6872 20.4518C10.6872 16.1424 14.1906 12.639 18.5 12.639ZM18.5 13.5582C17.4574 13.5582 16.4699 13.789 15.5848 14.2017C16.1744 15.8807 17.1835 18.0008 18.5 18.0008C19.8186 18.0008 20.7941 15.8739 21.398 14.1937C20.5173 13.786 19.5358 13.5582 18.5 13.5582ZM23.5427 15.7478C22.1275 16.8275 20.4205 18.4435 20.8276 19.6964C21.2351 20.9508 23.5599 21.2211 25.3446 21.2761C25.3767 21.0058 25.3936 20.7309 25.3936 20.4518C25.3936 18.6318 24.6912 16.9789 23.5427 15.7478ZM13.4459 15.7602C12.3041 16.9899 11.6064 18.6379 11.6064 20.4518C11.6064 20.7352 11.6237 21.0144 11.6568 21.2888C13.4355 21.2466 15.7614 20.9419 16.168 19.6905C16.5752 18.4372 14.8567 16.8537 13.4459 15.7602ZM17.0299 17.9888C16.9463 17.9912 16.865 18.0163 16.7946 18.0616C16.7242 18.1068 16.6676 18.1703 16.6307 18.2454C16.5937 18.3204 16.578 18.4041 16.5852 18.4875C16.5923 18.5708 16.6221 18.6506 16.6712 18.7182C16.7177 18.7823 16.78 18.8333 16.8521 18.8662C16.9241 18.8991 17.0034 18.9129 17.0823 18.9061C17.1612 18.8993 17.237 18.8723 17.3024 18.8276C17.3678 18.7829 17.4205 18.7221 17.4555 18.651C17.4904 18.5799 17.5064 18.501 17.5019 18.422C17.4974 18.3429 17.4725 18.2664 17.4297 18.1997C17.3869 18.1331 17.3276 18.0787 17.2575 18.0417C17.1875 18.0048 17.1091 17.9865 17.0299 17.9888ZM19.9701 17.9888C19.8909 17.9865 19.8125 18.0048 19.7425 18.0417C19.6724 18.0787 19.6131 18.1331 19.5703 18.1997C19.5275 18.2664 19.5026 18.3429 19.4981 18.422C19.4936 18.501 19.5096 18.5799 19.5445 18.651C19.5795 18.7221 19.6322 18.7829 19.6976 18.8276C19.763 18.8723 19.8388 18.8993 19.9177 18.9061C19.9966 18.9129 20.0759 18.8991 20.1479 18.8662C20.22 18.8333 20.2823 18.7823 20.3288 18.7182C20.3779 18.6506 20.4077 18.5708 20.4148 18.4875C20.422 18.4041 20.4063 18.3204 20.3693 18.2454C20.3324 18.1703 20.2758 18.1068 20.2054 18.0616C20.135 18.0163 20.0537 17.9912 19.9701 17.9888ZM18.5 18.8178C17.5975 18.8178 16.866 19.5494 16.866 20.4518C16.866 21.3543 17.5975 22.0859 18.5 22.0859C19.4025 22.0859 20.134 21.3543 20.134 20.4518C20.134 19.5494 19.4025 18.8178 18.5 18.8178ZM16.1359 20.7601C16.0639 20.7611 15.9932 20.779 15.9294 20.8124C15.8657 20.8458 15.8106 20.8936 15.7687 20.9522C15.7268 21.0107 15.6993 21.0782 15.6882 21.1494C15.6772 21.2205 15.6831 21.2932 15.7053 21.3617C15.743 21.4776 15.8252 21.5738 15.9338 21.6291C16.0424 21.6844 16.1685 21.6944 16.2844 21.6567C16.389 21.6227 16.478 21.5524 16.5351 21.4584C16.5923 21.3644 16.6138 21.253 16.5958 21.1445C16.5779 21.036 16.5216 20.9375 16.4372 20.867C16.3528 20.7965 16.2459 20.7585 16.1359 20.7601ZM20.8391 20.7604C20.7243 20.765 20.6154 20.8124 20.5339 20.8932C20.4523 20.9741 20.404 21.0826 20.3984 21.1973C20.3928 21.312 20.4304 21.4246 20.5037 21.513C20.5771 21.6014 20.6808 21.6591 20.7946 21.6749C20.9084 21.6906 21.0239 21.6631 21.1184 21.5979C21.2129 21.5327 21.2796 21.4344 21.3054 21.3225C21.3311 21.2106 21.3139 21.0931 21.2573 20.9931C21.2008 20.8932 21.1088 20.8181 20.9996 20.7826C20.9478 20.7657 20.8935 20.7582 20.8391 20.7604ZM16.1723 22.1756C15.0698 22.1809 13.6069 23.0351 12.4741 23.806C13.4458 25.5507 15.1529 26.8271 17.1792 27.2189C17.6894 25.5139 18.1198 23.2044 17.0543 22.4303C16.8065 22.2502 16.5061 22.174 16.1723 22.1756ZM20.8199 22.1766C20.4839 22.1766 20.182 22.2541 19.9342 22.4341C18.8672 23.2093 19.3284 25.5034 19.8276 27.2177C21.8541 26.8237 23.5607 25.5448 24.5305 23.7978C23.4068 23.0204 21.9296 22.1766 20.8199 22.1766V22.1766ZM18.5 22.4729C18.3781 22.4729 18.2612 22.5213 18.175 22.6075C18.0888 22.6937 18.0404 22.8106 18.0404 22.9325C18.0404 23.0544 18.0888 23.1713 18.175 23.2575C18.2612 23.3437 18.3781 23.3921 18.5 23.3921C18.6219 23.3921 18.7388 23.3437 18.825 23.2575C18.9112 23.1713 18.9596 23.0544 18.9596 22.9325C18.9596 22.8106 18.9112 22.6937 18.825 22.6075C18.7388 22.5213 18.6219 22.4729 18.5 22.4729Z" fill="white"/>
</svg>
