<svg width="37" height="37" viewBox="0 0 37 37" fill="none" xmlns="http://www.w3.org/2000/svg">
<rect x="0.5" y="0.5" width="36" height="36" rx="10" fill="#E18700"/>
<path d="M8.9 9.5C8.58174 9.5 8.27652 9.62643 8.05147 9.85147C7.82643 10.0765 7.7 10.3817 7.7 10.7V16.7C7.148 16.7 6.668 17.072 6.536 17.612V21.464H6.848C7.28 20.744 8.06 20.3 8.9 20.3H19.7C20.54 20.3 21.32 20.744 21.752 21.464H23.336L23.3 17.9C23.3 17.5817 23.1736 17.2765 22.9485 17.0515C22.7235 16.8264 22.4183 16.7 22.1 16.7H19.7V14.3C19.7 13.9817 19.5736 13.6765 19.3485 13.4515C19.1235 13.2264 18.8183 13.1 18.5 13.1C18.1817 13.1 17.8765 13.2264 17.6515 13.4515C17.4264 13.6765 17.3 13.9817 17.3 14.3V16.7H14.9V10.7C14.9 10.3817 14.7736 10.0765 14.5485 9.85147C14.3235 9.62643 14.0183 9.5 13.7 9.5H8.9ZM10.1 11.9H12.5V17.9H10.1V11.9ZM24.5 17.9V27.5H30.5V26.3L26.9 25.1L25.7 17.9H24.5ZM8.9 22.7C8.26348 22.7 7.65303 22.9529 7.20294 23.4029C6.75286 23.853 6.5 24.4635 6.5 25.1C6.5 25.7365 6.75286 26.347 7.20294 26.7971C7.65303 27.2471 8.26348 27.5 8.9 27.5H19.7C20.3365 27.5 20.947 27.2471 21.3971 26.7971C21.8471 26.347 22.1 25.7365 22.1 25.1C22.1 24.4635 21.8471 23.853 21.3971 23.4029C20.947 22.9529 20.3365 22.7 19.7 22.7H8.9Z" fill="white"/>
</svg>
